<svg xmlns="http://www.w3.org/2000/svg" xmlns:xlink="http://www.w3.org/1999/xlink" fill="none" version="1.1" width="1024" height="1024" viewBox="0 0 1024 1024"><defs><clipPath id="master_svg0_0_2"><rect x="0" y="0" width="1024" height="1024" rx="512"/></clipPath></defs><g clip-path="url(#master_svg0_0_2)"><rect x="0" y="0" width="1024" height="1024" rx="512" fill="#342E2C" fill-opacity="1"/><g><g><g><g><g><g><path d="M1024.0000000000002,798.247C1024.0000000000002,922.935,922.9370000000002,1024,798.2500000000002,1024L225.7730000000002,1024C101.0860000000002,1024,2.0210993523315374e-13,922.935,2.0210993523315374e-13,798.247L2.0210993523315374e-13,225.764C2.0210993523315374e-13,101.076,101.0860000000002,0,225.7730000000002,0L798.2500000000002,0C922.9370000000002,0,1024.0000000000002,101.076,1024.0000000000002,225.764L1024.0000000000002,798.247Z" fill-rule="evenodd" fill="#342E2C" fill-opacity="1"/></g><g><path d="M435.10330200195335,375.45230114746096C435.10330200195335,302.60000114746094,494.16530200195336,243.54930114746094,567.0063020019534,243.54930114746094C639.8573020019534,243.54930114746094,698.9083020019534,302.60000114746094,698.9083020019534,375.45230114746096C698.9083020019534,408.47030114746093,685.0053020019534,436.59630114746096,666.6523020019533,461.7183011474609L566.9153020019534,589.536301147461L474.2087020019534,471.9693011474609L463.24050200195336,456.70030114746095C447.93740200195333,435.39030114746095,435.10330200195335,406.1373011474609,435.10330200195335,375.45230114746096ZM488.4082020019533,375.45230114746096C488.4082020019533,418.8583011474609,523.5997020019533,454.04930114746094,567.0063020019534,454.04930114746094C610.4123020019533,454.04930114746094,645.6033020019534,418.8583011474609,645.6033020019534,375.45230114746096C645.6033020019534,332.04570114746093,610.4123020019533,296.86560114746095,567.0063020019534,296.86560114746095C523.5997020019533,296.86560114746095,488.4082020019533,332.04570114746093,488.4082020019533,375.45230114746096Z" fill-rule="evenodd" fill="#FFBF13" fill-opacity="1"/></g><g><path d="M639.2717387695315,561.2600602875L636.2797387695315,561.2600602875L566.8067387695314,648.9258046875L497.74363876953146,561.2373046875L494.3530387695315,561.2600602875L447.4197387695315,561.2600602875L447.4197387695315,783.2743046875L497.74363876953146,783.2743046875L497.74363876953146,646.0131046875L566.8067387695314,733.7133046875L636.2797387695315,646.0131046875L636.2797387695315,783.2743046875L686.5917387695315,783.2743046875L686.5917387695315,561.2600602875L639.2717387695315,561.2600602875Z" fill-rule="evenodd" fill="#FFFFFF" fill-opacity="1"/></g><g><path d="M736.8999633789065,783.2709477539063L736.8999633789065,561.2339477539062L917.6699633789065,561.2339477539062L917.6699633789065,610.8638477539063L787.1897633789065,610.8638477539063L787.1897633789065,647.4433477539062L917.6699633789065,647.4433477539062L917.6699633789065,697.0729477539062L787.1897633789065,697.0729477539062L787.1897633789065,733.6409477539063L917.6699633789065,733.6409477539063L917.6699633789065,783.2709477539063L736.8999633789065,783.2709477539063Z" fill-rule="evenodd" fill="#FFFFFF" fill-opacity="1"/></g><g><path d="M346.8037719726565,783.2709477539063L397.1162719726565,783.2709477539063L397.1162719726565,561.2339477539062L346.8037719726565,561.2339477539062L346.8037719726565,783.2709477539063Z" fill-rule="evenodd" fill="#FFFFFF" fill-opacity="1"/></g><g><path d="M296.47787481689477,561.2384643554688L102.58887481689473,561.2384643554688L102.58887481689473,611.5509643554688L174.38267481689473,611.5509643554688L174.38267481689473,783.2754643554688L224.69487481689472,783.2754643554688L224.69487481689472,611.5509643554688L296.47787481689477,611.5509643554688L296.47787481689477,561.2384643554688Z" fill-rule="evenodd" fill="#FFFFFF" fill-opacity="1"/></g><g><path d="M873.911374511719,270.2939147949219L873.911374511719,394.52791479492186L780.658874511719,270.3394258949219L780.658874511719,270.2939147949219L776.767674511719,270.2939147949219L730.346374511719,270.2939147949219L730.346374511719,480.61191479492186L780.658874511719,480.61191479492186L780.658874511719,356.4578147949219L873.911374511719,480.61191479492186L924.2233745117189,480.61191479492186L924.2233745117189,271.95507479492187L924.2233745117189,270.2939147949219L873.911374511719,270.2939147949219Z" fill-rule="evenodd" fill="#FFFFFF" fill-opacity="1"/></g></g></g></g></g></g></g></svg>