<svg width="20.000000" height="15.000000" viewBox="0 0 20 15" fill="none" xmlns="http://www.w3.org/2000/svg" xmlns:xlink="http://www.w3.org/1999/xlink">
	<desc>
			Created with Pixso.
	</desc>
	<defs/>
	<path id="形状" d="M18.3334 7.91663L18.3334 14.1666C18.3334 14.627 17.9602 15 17.5 15L16.6666 15C16.2064 15 15.8334 14.627 15.8334 14.1666L15.8334 13.3334L4.16663 13.3334L4.16663 14.1666C4.16663 14.627 3.79358 15 3.33337 15L2.5 15C2.03979 15 1.66663 14.627 1.66663 14.1666L1.66663 7.91663L0.631226 7.65784C0.260254 7.56506 0 7.23169 0 6.84937L0 6.25C0 6.0199 0.186523 5.83337 0.416626 5.83337L1.97913 5.83337L3.76111 1.08142C4.005 0.430908 4.62695 0 5.32166 0L14.6783 0C15.373 0 15.9949 0.430908 16.2389 1.08142L18.0209 5.83337L19.5834 5.83337C19.8135 5.83337 20 6.0199 20 6.25L20 6.84937C20 7.23169 19.7397 7.56506 19.3688 7.65784L18.3334 7.91663ZM3.69897 5.56982L5 1.66663L15 1.66663L16.301 5.56982C16.4465 6.00647 16.2106 6.47839 15.774 6.6239C15.689 6.65222 15.6001 6.66663 15.5105 6.66663L4.4895 6.66663C4.0293 6.66663 3.65625 6.29358 3.65625 5.83337C3.65625 5.74377 3.67065 5.65479 3.69897 5.56982ZM3.33337 10.8334L3.33337 9.16663C5.26392 9.16663 6.56555 9.79565 7.23828 11.0536L7.23816 11.0536C7.34668 11.2565 7.27014 11.5089 7.06726 11.6174C7.00684 11.6498 6.93933 11.6666 6.87085 11.6666L4.16663 11.6666C3.70642 11.6666 3.33337 11.2936 3.33337 10.8334ZM16.6666 9.16663C14.7361 9.16663 13.4344 9.79565 12.7617 11.0536L12.7618 11.0536C12.6533 11.2565 12.7299 11.5089 12.9327 11.6174C12.9932 11.6498 13.0607 11.6666 13.1292 11.6666L15.8334 11.6666C16.2936 11.6666 16.6666 11.2936 16.6666 10.8334L16.6666 9.16663Z" clip-rule="evenodd" fill="#377DF9" fill-opacity="1.000000" fill-rule="evenodd"/>
</svg>
