<svg width="16.666626" height="16.666626" viewBox="0 0 16.6666 16.6666" fill="none" xmlns="http://www.w3.org/2000/svg" xmlns:xlink="http://www.w3.org/1999/xlink">
	<desc>
			Created with Pixso.
	</desc>
	<defs/>
	<path id="形状" d="M11.6666 3.33337C11.6666 5.17432 10.1742 6.66663 8.33337 6.66663C6.49243 6.66663 5 5.17432 5 3.33337C5 1.49243 6.49243 0 8.33337 0C10.1742 0 11.6666 1.49243 11.6666 3.33337ZM5 7.08337C5 8.23389 4.06726 9.16663 2.91663 9.16663C1.76611 9.16663 0.833374 8.23389 0.833374 7.08337C0.833374 5.93274 1.76611 5 2.91663 5C4.06726 5 5 5.93274 5 7.08337ZM15.8334 7.08337C15.8334 8.23389 14.9006 9.16663 13.75 9.16663C12.5994 9.16663 11.6666 8.23389 11.6666 7.08337C11.6666 5.93274 12.5994 5 13.75 5C14.9006 5 15.8334 5.93274 15.8334 7.08337ZM12.5 11.6666C12.5 9.36548 10.6345 7.5 8.33337 7.5C6.0321 7.5 4.16663 9.36548 4.16663 11.6666L4.16663 16.6666L12.5 16.6666L12.5 11.6666ZM2.5 11.6666C2.5 11.0891 2.58386 10.5314 2.74011 10.0046L2.59888 10.017C1.13757 10.1753 0 11.4132 0 12.9166L0 16.6666L2.5 16.6666L2.5 11.6666ZM16.6666 12.9166L16.6666 16.6666L14.1666 16.6666L14.1666 11.6666C14.1666 11.0891 14.0828 10.5314 13.9265 10.0046C15.455 10.0961 16.6666 11.3649 16.6666 12.9166Z" clip-rule="evenodd" fill="#377DF9" fill-opacity="1.000000" fill-rule="evenodd"/>
</svg>
