<?xml version="1.0" standalone="no"?><!DOCTYPE svg PUBLIC "-//W3C//DTD SVG 1.1//EN" "http://www.w3.org/Graphics/SVG/1.1/DTD/svg11.dtd"><svg t="1762867633920" class="icon" viewBox="0 0 1024 1024" version="1.1" xmlns="http://www.w3.org/2000/svg" p-id="5222" xmlns:xlink="http://www.w3.org/1999/xlink" width="200" height="200"><path d="M689.067 362.667c-32-2.134-59.734-8.534-89.6-17.067-46.934-17.067-76.8-38.4-76.8-38.4L512 300.8l-10.667 6.4c-2.133 2.133-32 21.333-76.8 38.4-27.733 10.667-57.6 17.067-89.6 17.067h-17.066v179.2c0 40.533 25.6 85.333 70.4 125.866 19.2 17.067 42.666 32 64 42.667s42.666 17.067 57.6 17.067c17.066 0 36.266-6.4 59.733-17.067s44.8-25.6 64-42.667c19.2-17.066 36.267-38.4 51.2-59.733 12.8-23.467 21.333-44.8 21.333-66.133v-179.2h-17.066zM622.933 620.8c-4.266 4.267-8.533 6.4-14.933 6.4s-10.667-2.133-14.933-6.4l-25.6-25.6c-17.067 12.8-38.4 19.2-61.867 19.2-61.867 0-110.933-49.067-110.933-108.8S443.733 396.8 505.6 396.8c61.867 0 110.933 49.067 110.933 108.8 0 23.467-6.4 42.667-19.2 61.867l25.6 25.6c8.534 6.4 8.534 19.2 0 27.733z" fill="#3D7EFF" p-id="5223"></path><path d="M505.6 437.333c-38.4 0-70.4 29.867-70.4 68.267 0 38.4 32 68.267 70.4 68.267 10.667 0 23.467-2.134 32-8.534L516.267 544c-8.534-8.533-8.534-21.333 0-27.733s21.333-8.534 29.866 0l21.334 21.333c4.266-8.533 8.533-19.2 8.533-32 0-38.4-32-68.267-70.4-68.267z" fill="#3D7EFF" p-id="5224"></path><path d="M512 0C228.267 0 0 228.267 0 512s228.267 512 512 512 512-228.267 512-512S795.733 0 512 0z m209.067 629.333c-14.934 25.6-36.267 49.067-59.734 70.4C640 718.933 614.4 736 588.8 748.8c-27.733 12.8-55.467 21.333-76.8 21.333-23.467 0-49.067-6.4-76.8-21.333-25.6-12.8-51.2-29.867-72.533-49.067C309.333 652.8 277.333 595.2 277.333 544V345.6c0-10.667 8.534-19.2 21.334-19.2h38.4c25.6-2.133 51.2-6.4 74.666-14.933 40.534-14.934 68.267-32 68.267-34.134l21.333-14.933c6.4-4.267 17.067-4.267 23.467 0l23.467 14.933s25.6 17.067 68.266 34.134C640 320 665.6 324.267 691.2 326.4h36.267c10.666 0 21.333 8.533 21.333 19.2V544c-2.133 25.6-10.667 55.467-27.733 85.333z" fill="#3D7EFF" p-id="5225"></path></svg>